<mxfile host="Electron" modified="2024-05-05T06:26:53.047Z" agent="Mozilla/5.0 (Windows NT 10.0; Win64; x64) AppleWebKit/537.36 (KHTML, like Gecko) draw.io/24.2.5 Chrome/120.0.6099.109 Electron/28.1.0 Safari/537.36" etag="OhZ5gIUfjldbjTAC2NQn" version="24.2.5" type="device">
  <diagram name="Page-1" id="EhtNsRnIxU-AGJVT-wYd">
    <mxGraphModel dx="588" dy="1548" grid="1" gridSize="10" guides="1" tooltips="1" connect="1" arrows="1" fold="1" page="1" pageScale="1" pageWidth="827" pageHeight="1169" math="0" shadow="0">
      <root>
        <mxCell id="0" />
        <mxCell id="1" parent="0" />
        <mxCell id="QP0HA9HigsDkOwDpWudq-1" value="client-React" style="whiteSpace=wrap;html=1;aspect=fixed;" parent="1" vertex="1">
          <mxGeometry x="625" y="200" width="80" height="80" as="geometry" />
        </mxCell>
        <mxCell id="QP0HA9HigsDkOwDpWudq-2" value="backend&lt;div&gt;node&lt;/div&gt;" style="whiteSpace=wrap;html=1;aspect=fixed;" parent="1" vertex="1">
          <mxGeometry x="80" y="160" width="80" height="80" as="geometry" />
        </mxCell>
        <mxCell id="QP0HA9HigsDkOwDpWudq-3" value="Api gateway" style="rounded=0;whiteSpace=wrap;html=1;" parent="1" vertex="1">
          <mxGeometry x="480" y="40" width="60" height="410" as="geometry" />
        </mxCell>
        <mxCell id="QP0HA9HigsDkOwDpWudq-4" value="user auth" style="rounded=0;whiteSpace=wrap;html=1;" parent="1" vertex="1">
          <mxGeometry x="260" y="140" width="120" height="40" as="geometry" />
        </mxCell>
        <mxCell id="QP0HA9HigsDkOwDpWudq-5" value="dietary recommendation" style="rounded=0;whiteSpace=wrap;html=1;" parent="1" vertex="1">
          <mxGeometry x="260" y="210" width="120" height="40" as="geometry" />
        </mxCell>
        <mxCell id="QP0HA9HigsDkOwDpWudq-12" value="appointment booking" style="rounded=0;whiteSpace=wrap;html=1;" parent="1" vertex="1">
          <mxGeometry x="260" y="280" width="120" height="40" as="geometry" />
        </mxCell>
        <mxCell id="977FdMLtxSqQcIu-mQvR-5" style="edgeStyle=orthogonalEdgeStyle;rounded=0;orthogonalLoop=1;jettySize=auto;html=1;exitX=0.5;exitY=1;exitDx=0;exitDy=0;entryX=0.5;entryY=0;entryDx=0;entryDy=0;" edge="1" parent="1" source="QP0HA9HigsDkOwDpWudq-22" target="QP0HA9HigsDkOwDpWudq-1">
          <mxGeometry relative="1" as="geometry">
            <mxPoint x="664.8235294117646" y="160" as="targetPoint" />
          </mxGeometry>
        </mxCell>
        <mxCell id="QP0HA9HigsDkOwDpWudq-22" value="" style="shape=actor;whiteSpace=wrap;html=1;" parent="1" vertex="1">
          <mxGeometry x="650" y="70" width="30" height="40" as="geometry" />
        </mxCell>
        <mxCell id="QP0HA9HigsDkOwDpWudq-23" value="MongoDB" style="shape=cylinder3;whiteSpace=wrap;html=1;boundedLbl=1;backgroundOutline=1;size=15;" parent="1" vertex="1">
          <mxGeometry x="90" y="-30" width="60" height="80" as="geometry" />
        </mxCell>
        <mxCell id="977FdMLtxSqQcIu-mQvR-1" value="backend-ML&lt;div&gt;flask&lt;/div&gt;" style="whiteSpace=wrap;html=1;aspect=fixed;" vertex="1" parent="1">
          <mxGeometry x="80" y="270" width="80" height="80" as="geometry" />
        </mxCell>
        <mxCell id="977FdMLtxSqQcIu-mQvR-2" value="risk analysis" style="rounded=0;whiteSpace=wrap;html=1;" vertex="1" parent="1">
          <mxGeometry x="260" y="350" width="120" height="40" as="geometry" />
        </mxCell>
        <mxCell id="977FdMLtxSqQcIu-mQvR-8" value="" style="endArrow=classic;startArrow=classic;html=1;rounded=0;" edge="1" parent="1" target="QP0HA9HigsDkOwDpWudq-1">
          <mxGeometry width="50" height="50" relative="1" as="geometry">
            <mxPoint x="540" y="240" as="sourcePoint" />
            <mxPoint x="590" y="190" as="targetPoint" />
          </mxGeometry>
        </mxCell>
        <mxCell id="977FdMLtxSqQcIu-mQvR-9" value="" style="endArrow=classic;startArrow=classic;html=1;rounded=0;entryX=-0.037;entryY=0.46;entryDx=0;entryDy=0;entryPerimeter=0;" edge="1" parent="1" target="QP0HA9HigsDkOwDpWudq-3">
          <mxGeometry width="50" height="50" relative="1" as="geometry">
            <mxPoint x="380" y="230" as="sourcePoint" />
            <mxPoint x="430" y="180" as="targetPoint" />
          </mxGeometry>
        </mxCell>
        <mxCell id="977FdMLtxSqQcIu-mQvR-10" value="" style="endArrow=classic;startArrow=classic;html=1;rounded=0;entryX=-0.037;entryY=0.647;entryDx=0;entryDy=0;entryPerimeter=0;" edge="1" parent="1" target="QP0HA9HigsDkOwDpWudq-3">
          <mxGeometry width="50" height="50" relative="1" as="geometry">
            <mxPoint x="380" y="310" as="sourcePoint" />
            <mxPoint x="430" y="260" as="targetPoint" />
          </mxGeometry>
        </mxCell>
        <mxCell id="977FdMLtxSqQcIu-mQvR-11" value="" style="endArrow=classic;startArrow=classic;html=1;rounded=0;entryX=-0.037;entryY=0.282;entryDx=0;entryDy=0;entryPerimeter=0;exitX=1;exitY=0.5;exitDx=0;exitDy=0;" edge="1" parent="1" source="QP0HA9HigsDkOwDpWudq-4" target="QP0HA9HigsDkOwDpWudq-3">
          <mxGeometry width="50" height="50" relative="1" as="geometry">
            <mxPoint x="390" y="170" as="sourcePoint" />
            <mxPoint x="410" y="130" as="targetPoint" />
          </mxGeometry>
        </mxCell>
        <mxCell id="977FdMLtxSqQcIu-mQvR-12" value="" style="endArrow=classic;startArrow=classic;html=1;rounded=0;entryX=0.002;entryY=0.812;entryDx=0;entryDy=0;entryPerimeter=0;" edge="1" parent="1" target="QP0HA9HigsDkOwDpWudq-3">
          <mxGeometry width="50" height="50" relative="1" as="geometry">
            <mxPoint x="380" y="380" as="sourcePoint" />
            <mxPoint x="430" y="330" as="targetPoint" />
          </mxGeometry>
        </mxCell>
        <mxCell id="977FdMLtxSqQcIu-mQvR-14" value="" style="endArrow=classic;startArrow=classic;html=1;rounded=0;entryX=0;entryY=0.5;entryDx=0;entryDy=0;exitX=1;exitY=0.5;exitDx=0;exitDy=0;" edge="1" parent="1" source="977FdMLtxSqQcIu-mQvR-1" target="977FdMLtxSqQcIu-mQvR-2">
          <mxGeometry width="50" height="50" relative="1" as="geometry">
            <mxPoint x="160" y="320" as="sourcePoint" />
            <mxPoint x="210" y="270" as="targetPoint" />
          </mxGeometry>
        </mxCell>
        <mxCell id="977FdMLtxSqQcIu-mQvR-15" value="" style="endArrow=classic;startArrow=classic;html=1;rounded=0;entryX=0;entryY=0.5;entryDx=0;entryDy=0;" edge="1" parent="1" target="QP0HA9HigsDkOwDpWudq-4">
          <mxGeometry width="50" height="50" relative="1" as="geometry">
            <mxPoint x="160" y="200" as="sourcePoint" />
            <mxPoint x="210" y="150" as="targetPoint" />
          </mxGeometry>
        </mxCell>
        <mxCell id="977FdMLtxSqQcIu-mQvR-16" value="" style="endArrow=classic;startArrow=classic;html=1;rounded=0;entryX=0;entryY=0.5;entryDx=0;entryDy=0;" edge="1" parent="1" source="QP0HA9HigsDkOwDpWudq-2" target="QP0HA9HigsDkOwDpWudq-5">
          <mxGeometry width="50" height="50" relative="1" as="geometry">
            <mxPoint x="190" y="220" as="sourcePoint" />
            <mxPoint x="210" y="160" as="targetPoint" />
          </mxGeometry>
        </mxCell>
        <mxCell id="977FdMLtxSqQcIu-mQvR-17" value="" style="endArrow=classic;startArrow=classic;html=1;rounded=0;entryX=0;entryY=0.5;entryDx=0;entryDy=0;exitX=1;exitY=0.75;exitDx=0;exitDy=0;" edge="1" parent="1" source="QP0HA9HigsDkOwDpWudq-2" target="QP0HA9HigsDkOwDpWudq-12">
          <mxGeometry width="50" height="50" relative="1" as="geometry">
            <mxPoint x="160" y="210" as="sourcePoint" />
            <mxPoint x="210" y="160" as="targetPoint" />
          </mxGeometry>
        </mxCell>
        <mxCell id="977FdMLtxSqQcIu-mQvR-18" value="" style="endArrow=classic;startArrow=classic;html=1;rounded=0;exitX=0.5;exitY=0;exitDx=0;exitDy=0;entryX=0.5;entryY=1;entryDx=0;entryDy=0;entryPerimeter=0;" edge="1" parent="1" source="QP0HA9HigsDkOwDpWudq-2" target="QP0HA9HigsDkOwDpWudq-23">
          <mxGeometry width="50" height="50" relative="1" as="geometry">
            <mxPoint x="190" y="110" as="sourcePoint" />
            <mxPoint x="240" y="60" as="targetPoint" />
          </mxGeometry>
        </mxCell>
      </root>
    </mxGraphModel>
  </diagram>
</mxfile>
